<svg id="icon-mail" xmlns="http://www.w3.org/2000/svg" viewBox="0 0 64 64">
<style>.st0{fill:#FFFFFF;}</style><g>
	<path class="st0" d="M42.3,33.2l20.4,17.8c0.2-0.6,0.3-1.3,0.3-2V15.2L42.3,33.2z"/>
	<path class="st0" d="M32,35.3c0.9,0,1.7-0.3,2.4-0.9l27.1-23.6c-1.3-1.6-3.2-2.6-5.4-2.6H7.9c-2.2,0-4.1,1-5.4,2.6l27.1,23.6
		C30.3,35,31.1,35.3,32,35.3z"/>
	<path class="st0" d="M1,15.2v33.8c0,0.7,0.1,1.4,0.3,2l20.4-17.8L1,15.2z"/>
	<path class="st0" d="M37.3,37.6c-1.5,1.3-3.4,2-5.3,2c-1.9,0-3.8-0.7-5.3-2L24.9,36L3.8,54.5c1.1,0.8,2.6,1.4,4.1,1.4h48.2
		c1.5,0,2.9-0.5,4.1-1.4L39.1,36L37.3,37.6z"/>
</g></svg>
